<svg width="31" height="30" viewBox="0 0 31 30" fill="none" xmlns="http://www.w3.org/2000/svg">
<path d="M25.5711 25.9811C26.2976 25.8325 26.7319 25.086 26.3699 24.4479C25.5724 23.044 24.3168 21.8092 22.7111 20.8689C20.6421 19.6574 18.1059 19 15.5 19C12.8941 19 10.3579 19.6561 8.28891 20.8689C6.68322 21.8092 5.42763 23.044 4.63005 24.4479C4.26812 25.086 4.70244 25.8325 5.42895 25.9811C12.0712 27.3396 18.9275 27.3396 25.5697 25.9811" fill="#B2B2B2"/>
<path d="M15.5 17C19.366 17 22.5 13.866 22.5 10C22.5 6.13401 19.366 3 15.5 3C11.634 3 8.5 6.13401 8.5 10C8.5 13.866 11.634 17 15.5 17Z" fill="#B2B2B2"/>
</svg>
